<svg width="102" height="24" viewBox="0 0 102 24" fill="none" xmlns="http://www.w3.org/2000/svg">
<path d="M1.16786 15.5272C1.51916 15.8406 1.89895 16.0874 2.32622 16.3153C2.73449 16.5432 3.18074 16.7616 3.63649 16.9135C4.10173 17.0844 4.58597 17.1983 5.08919 17.2838C5.57342 17.3787 6.07664 17.4167 6.57987 17.3977C7.34894 17.3977 7.99458 17.2458 8.48831 16.9515C8.97254 16.6856 9.21941 16.2204 9.21941 15.6032C9.21941 14.9101 8.97254 14.3879 8.48831 14.0176C7.98509 13.6663 7.27298 13.4004 6.32351 13.1725C5.35504 12.9826 4.51001 12.7263 3.76942 12.4414C3.01933 12.1661 2.40217 11.8243 1.89895 11.435C1.39573 11.0457 1.00644 10.609 0.75958 10.0867C0.493727 9.58353 0.370295 8.98536 0.370295 8.29224C0.370295 7.56114 0.522212 6.925 0.835539 6.38379C1.14887 5.86158 1.54765 5.41533 2.08885 5.05453C2.61106 4.70322 3.20923 4.43737 3.90234 4.24747C4.57647 4.09556 5.28858 4.00061 6.06715 4.00061C7.09258 4.00061 8.08004 4.17152 9.00103 4.48484C9.93151 4.83615 10.8525 5.27291 11.783 5.85209L10.6436 8.14982C10.0265 7.70357 9.31435 7.34276 8.53579 7.02944C7.74772 6.7351 6.95016 6.58318 6.18109 6.54521C5.84877 6.54521 5.52595 6.56419 5.21262 6.60217C4.86131 6.65914 4.57647 6.75409 4.32011 6.86803C4.05426 7.00095 3.81689 7.18135 3.66498 7.39024C3.49407 7.61811 3.41811 7.89346 3.41811 8.19729C3.41811 8.49163 3.45609 8.73849 3.55104 8.92839C3.627 9.15626 3.7979 9.35565 4.03527 9.50757C4.26315 9.69746 4.57647 9.85887 4.96576 10.0108C5.35504 10.1627 5.83927 10.3241 6.45643 10.476C7.51985 10.7609 8.43134 11.0552 9.18143 11.3685C9.91253 11.7009 10.5107 12.0427 10.9759 12.432C11.4222 12.8402 11.745 13.277 11.9634 13.7802C12.1533 14.2834 12.2767 14.8816 12.2767 15.5367C12.2767 16.2678 12.1248 16.885 11.8115 17.4262C11.4981 17.9674 11.0804 18.4326 10.5582 18.8124C10.017 19.1827 9.39981 19.4676 8.6877 19.6575C7.9566 19.8474 7.15905 19.9518 6.35199 19.9518C5.17464 19.9518 4.05426 19.7429 2.97186 19.3536C1.87047 18.9454 0.883012 18.4421 0 17.825L1.17735 15.5272H1.16786Z" fill="#FFFCF7"/>
<path d="M12.8467 19.5631L18.4486 4.37146H21.7907L27.3926 19.5726H24.3638L22.6263 14.6828L17.0813 16.1924L15.885 19.5726H12.8562L12.8467 19.5631ZM18.0118 13.6194L21.8762 12.5749L20.1197 7.66614L18.0118 13.6099V13.6194Z" fill="#FFFCF7"/>
<path d="M39.9639 10.6285V12.9832H31.9883V17.2274H40.5241V19.5631H28.9405V4.37146H40.3342V6.72616H31.9883V10.6285H39.9639Z" fill="#FFFCF7"/>
<path d="M42.5456 4.37146H50.6921C51.3472 4.37146 51.9454 4.46641 52.5246 4.64681C53.0848 4.8367 53.588 5.11205 54.0153 5.45386C54.4425 5.84315 54.7653 6.2989 55.0217 6.8401C55.2496 7.41928 55.373 8.07442 55.373 8.834C55.373 9.9164 55.1451 10.7614 54.6989 11.3596C54.2336 11.9768 53.5975 12.442 52.8094 12.7458L56.1896 19.5631H53.0373L50.0275 13.4959L45.6029 14.5403V19.5631H42.5551V4.37146H42.5456ZM52.3442 8.834C52.3442 8.15987 52.1353 7.63766 51.746 7.26736C51.3187 6.91605 50.7965 6.72616 50.1604 6.72616H45.6029V11.9957L49.8281 11.1222C50.6351 10.9893 51.2618 10.714 51.6985 10.3342C52.1258 9.96387 52.3347 9.46065 52.3347 8.8245L52.3442 8.834Z" fill="#FFFCF7"/>
<path d="M64.147 17.0167C61.8207 16.447 60.0927 14.3487 60.0927 11.8515C60.0927 9.35442 61.8207 7.25608 64.147 6.6864V4.17029C60.406 4.81593 57.5481 8.07263 57.5481 12.0035C57.5481 15.9343 60.3965 19.191 64.147 19.8366V17.0262V17.0167Z" fill="#D5EBDE"/>
<path d="M66.862 4.17072V6.73431C69.1028 7.36096 70.7454 9.41183 70.7454 11.852C70.7454 14.2921 69.1028 16.343 66.862 16.9697V19.8181C70.603 19.1724 73.4609 15.9157 73.4609 11.9849C73.4609 8.05408 70.6125 4.79738 66.862 4.15173V4.17072Z" fill="#D5EBDE"/>
<path d="M64.147 4.04761H57.5481V6.76311H64.147V4.04761Z" fill="#D5EBDE"/>
<path d="M73.4609 17.2365H66.862V19.9994H73.4609V17.2365Z" fill="#D5EBDE"/>
<path fill-rule="evenodd" clip-rule="evenodd" d="M86.5034 5.79228C86.8939 5.40176 87.5271 5.40176 87.9176 5.79228L93.4176 11.2923C93.8081 11.6828 93.8081 12.316 93.4176 12.7065L87.9176 18.2065C87.5271 18.597 86.8939 18.597 86.5034 18.2065C86.1129 17.816 86.1129 17.1828 86.5034 16.7923L91.2963 11.9994L86.5034 7.2065C86.1129 6.81597 86.1129 6.18281 86.5034 5.79228Z" fill="#FEF5A2"/>
</svg>
