<svg width="86" height="19" viewBox="0 0 86 19" fill="none" xmlns="http://www.w3.org/2000/svg">
<path fill-rule="evenodd" clip-rule="evenodd" d="M9.74792 2.80309C9.74914 2.78561 9.74976 2.76797 9.74976 2.75018C9.74976 2.33597 9.41397 2.00018 8.99976 2.00018C8.58554 2.00018 8.24976 2.33597 8.24976 2.75018C8.24976 2.76797 8.25038 2.78561 8.25159 2.80309C5.70648 3.16622 3.74976 5.35469 3.74976 8.00018V13.2502H2.99976C2.58554 13.2502 2.24976 13.586 2.24976 14.0002C2.24976 14.4144 2.58554 14.7502 2.99976 14.7502H6.74976C6.74976 15.9928 7.75712 17.0002 8.99976 17.0002C10.2424 17.0002 11.2498 15.9928 11.2498 14.7502H14.9998C15.414 14.7502 15.7498 14.4144 15.7498 14.0002C15.7498 13.586 15.414 13.2502 14.9998 13.2502H14.2498V8.00018C14.2498 5.35469 12.293 3.16622 9.74792 2.80309ZM12.7498 8.00018V13.2502H5.24976V8.00018C5.24976 5.92912 6.92869 4.25018 8.99976 4.25018C11.0708 4.25018 12.7498 5.92912 12.7498 8.00018ZM8.99976 15.5002C8.58554 15.5002 8.24976 15.1644 8.24976 14.7502H9.74976C9.74976 15.1644 9.41397 15.5002 8.99976 15.5002Z" fill="#FFFCF7"/>
<path d="M36.1548 6.8V3.504H26.0108V2.16H37.7388V6.8H36.1548ZM31.8188 7.76H38.7468V9.072H25.0988V7.76H30.2188V5.088H31.8188V7.76ZM31.9148 10.352C35.1788 10.352 37.9148 11.104 37.9148 13.008C37.9148 14.928 35.1788 15.68 31.9148 15.68C28.6508 15.68 25.9148 14.928 25.9148 13.008C25.9148 11.04 28.6508 10.352 31.9148 10.352ZM31.9148 14.416C34.1228 14.416 36.2508 13.984 36.2508 13.008C36.2508 12.048 34.1228 11.616 31.9148 11.616C29.7068 11.616 27.5788 12 27.5788 13.008C27.5788 13.984 29.7068 14.416 31.9148 14.416ZM51.6574 2H53.2414V15.664H51.6574V2ZM46.3294 3.952C46.3134 5.536 46.1534 6.992 45.8974 8.272L50.3614 13.792L49.1134 14.736L45.4334 10.048C44.4894 12.912 42.8574 14.608 40.7934 14.848V13.28C43.2254 12.832 44.6654 9.024 44.7294 3.952H41.1134V2.496H49.8334V3.952H46.3294ZM70.168 7.536V9.056H68.248V15.664H66.664V2H68.248V7.536H70.168ZM61.784 2.4C61.768 4.528 61.592 6.432 61.24 8.08L65.544 13.904L64.264 14.816L60.744 9.936C59.768 12.912 58.12 14.688 55.992 14.848V13.248C58.728 12.816 60.152 8.08 60.168 2.336L61.784 2.4ZM80.5026 3.152V4.384H71.2226V3.152H75.0626V1.76H76.6626V3.152H80.5026ZM83.6386 5.312H85.5586V6.816H83.6386V10.304H82.0546V2H83.6386V5.312ZM75.8626 10.032C73.5906 10.032 71.8466 9.168 71.8466 7.6C71.8466 5.984 73.5906 5.104 75.8626 5.104C78.1186 5.104 79.8626 5.984 79.8626 7.6C79.8626 9.168 78.1186 10.032 75.8626 10.032ZM75.8626 6.288C74.3266 6.288 73.3666 6.832 73.3666 7.6C73.3666 8.336 74.3266 8.848 75.8626 8.848C77.3826 8.848 78.3586 8.336 78.3586 7.6C78.3586 6.832 77.3826 6.288 75.8626 6.288ZM78.0066 10.704C81.2866 10.704 83.8306 11.344 83.8306 13.184C83.8306 15.008 81.2866 15.664 78.0066 15.664C74.7266 15.664 72.1826 15.008 72.1826 13.184C72.1826 11.344 74.7266 10.704 78.0066 10.704ZM78.0066 14.432C80.3586 14.432 82.1666 14.064 82.1666 13.184C82.1666 12.304 80.3586 11.936 78.0066 11.936C75.6706 11.936 73.8626 12.304 73.8626 13.184C73.8626 14.064 75.6706 14.432 78.0066 14.432Z" fill="#FFFCF7"/>
</svg>
