<svg width="121" height="24" viewBox="0 0 121 24" fill="none" xmlns="http://www.w3.org/2000/svg">
<path d="M1.92001 17.184H13.92C14.512 17.184 14.808 17.112 14.808 16.968C14.808 16.84 14.664 16.744 14.376 16.68C13.96 16.552 13.336 16.456 12.504 16.392C11.688 16.312 10.776 16.272 9.76801 16.272C7.27201 16.272 4.98401 16.48 2.90401 16.896L2.32801 14.304C4.45601 13.856 6.89601 13.632 9.64801 13.632C10.848 13.632 11.936 13.68 12.912 13.776C13.904 13.856 14.664 13.976 15.192 14.136C15.992 14.376 16.6 14.752 17.016 15.264C17.448 15.776 17.664 16.336 17.664 16.944C17.664 17.44 17.52 17.912 17.232 18.36C16.944 18.792 16.512 19.144 15.936 19.416C15.376 19.688 14.704 19.824 13.92 19.824H5.83201C5.73601 19.92 5.68801 20.008 5.68801 20.088C5.68801 20.264 5.88001 20.424 6.26401 20.568C6.82401 20.792 7.80801 20.904 9.21601 20.904C10.672 20.904 12.288 20.776 14.064 20.52C15.84 20.28 17.432 19.944 18.84 19.512L19.656 22.056C18.376 22.44 16.872 22.776 15.144 23.064C13 23.496 11.096 23.712 9.43201 23.712C7.83201 23.712 6.52001 23.52 5.49601 23.136C4.48801 22.768 3.76801 22.288 3.33601 21.696C2.92001 21.12 2.75201 20.496 2.83201 19.824H1.92001V17.184ZM4.89601 5.976C4.89601 6.264 5.38401 6.504 6.36001 6.696C7.35201 6.888 8.49601 6.984 9.79201 6.984C10.288 6.984 10.656 6.976 10.896 6.96C12.976 6.848 14.168 6.536 14.472 6.024C13.4 5.816 12.24 5.656 10.992 5.544C9.74401 5.416 8.62401 5.352 7.63201 5.352C5.80801 5.352 4.89601 5.56 4.89601 5.976ZM19.488 12.84H1.12355e-05V10.464H8.42401V9.6C6.55201 9.504 5.01601 9.176 3.81601 8.616C2.61601 8.04 2.01601 7.16 2.01601 5.976V1.512H4.89601V3.024C5.88801 2.784 7.00001 2.664 8.23201 2.664C10.024 2.664 12.144 2.888 14.592 3.336V1.728H17.472V5.64C17.472 6.824 16.936 7.752 15.864 8.424C14.808 9.096 13.208 9.488 11.064 9.6V10.464H19.488V12.84ZM23.0724 16.632H34.0884C34.3765 16.632 34.5924 16.592 34.7364 16.512C34.8804 16.432 34.9524 16.336 34.9524 16.224C34.9524 16.016 34.8004 15.864 34.4964 15.768C34.0804 15.624 33.5124 15.512 32.7924 15.432C32.0884 15.352 31.2964 15.312 30.4164 15.312C28.2564 15.312 26.1444 15.552 24.0804 16.032L23.4084 13.44C25.5684 12.944 27.8564 12.696 30.2724 12.696C31.3604 12.696 32.3524 12.752 33.2484 12.864C34.1444 12.96 34.8644 13.096 35.4085 13.272C36.2084 13.544 36.8084 13.944 37.2084 14.472C37.6244 15 37.8324 15.576 37.8324 16.2C37.8324 16.728 37.6804 17.232 37.3764 17.712C37.0884 18.176 36.6564 18.552 36.0805 18.84C35.5204 19.128 34.8564 19.272 34.0884 19.272H27.0324C26.8884 19.416 26.8164 19.568 26.8164 19.728C26.8164 20 27.0164 20.224 27.4164 20.4C27.9764 20.656 28.8804 20.784 30.1284 20.784C31.4244 20.784 32.8324 20.648 34.3524 20.376C35.8724 20.104 37.2164 19.736 38.3844 19.272L39.4404 21.72C38.1764 22.232 36.6964 22.64 35.0004 22.944C33.3204 23.264 31.7204 23.424 30.2004 23.424C28.4724 23.424 27.1444 23.216 26.2164 22.8C25.4484 22.448 24.8724 22 24.4884 21.456C24.1204 20.928 23.9364 20.368 23.9364 19.776C23.9364 19.664 23.9524 19.496 23.9844 19.272H23.0724V16.632ZM37.8804 1.584V6.528H40.1845V9.408H37.8804V12.432H35.0004V1.584H37.8804ZM23.2644 8.208C23.2644 8.56 23.3044 8.808 23.3844 8.952C23.4804 9.096 23.6164 9.168 23.7924 9.168C24.0324 9.168 24.2084 9.056 24.3204 8.832C24.4324 8.592 24.4884 8.104 24.4884 7.368V7.27201C24.0244 7.304 23.7044 7.384 23.5284 7.512C23.3524 7.64001 23.2644 7.872 23.2644 8.208ZM29.8644 8.208C29.8644 8.56 29.9044 8.808 29.9844 8.952C30.0804 9.096 30.2164 9.168 30.3924 9.168C30.6324 9.168 30.8084 9.056 30.9204 8.832C31.0324 8.592 31.0884 8.104 31.0884 7.368V7.27201C30.6244 7.304 30.3044 7.384 30.1284 7.512C29.9524 7.64001 29.8644 7.872 29.8644 8.208ZM20.8644 2.208H23.2644V4.848C23.6324 4.736 24.0004 4.672 24.3684 4.656C24.2724 3.648 24.1364 2.832 23.9604 2.208H26.4324C26.5764 2.864 26.6884 3.656 26.7684 4.584C26.8484 5.496 26.8884 6.424 26.8884 7.368C26.8884 8.856 26.6084 9.968 26.0484 10.704C25.5044 11.44 24.7684 11.808 23.8404 11.808C22.9924 11.808 22.2804 11.496 21.7044 10.872C21.1444 10.232 20.8644 9.344 20.8644 8.208V2.208ZM27.4644 2.208H29.8644V4.848C30.2324 4.736 30.6004 4.672 30.9684 4.656C30.8724 3.648 30.7364 2.832 30.5604 2.208H33.0324C33.1764 2.864 33.2884 3.656 33.3684 4.584C33.4484 5.496 33.4884 6.424 33.4884 7.368C33.4884 8.856 33.2084 9.968 32.6484 10.704C32.1044 11.44 31.3684 11.808 30.4404 11.808C29.5924 11.808 28.8804 11.496 28.3044 10.872C27.7444 10.232 27.4644 9.344 27.4644 8.208V2.208ZM59.1289 22.44C57.9129 22.744 56.6489 22.976 55.3369 23.136C54.0409 23.312 52.7849 23.4 51.5689 23.4C50.1289 23.4 48.8649 23.264 47.7769 22.992C46.7049 22.736 45.9129 22.328 45.4009 21.768C44.9369 21.256 44.6089 20.672 44.4169 20.016C44.2249 19.36 44.1289 18.616 44.1289 17.784C44.1289 17.128 44.1849 16.28 44.2969 15.24L47.1769 15.528C47.0809 16.44 47.0329 17.208 47.0329 17.832C47.0329 18.92 47.1929 19.624 47.5129 19.944C47.7529 20.2 48.2249 20.392 48.9289 20.52C49.6329 20.664 50.4889 20.736 51.4969 20.736C52.6649 20.736 53.9209 20.648 55.2649 20.472C56.6249 20.296 57.9129 20.04 59.1289 19.704V22.44ZM58.5289 1.584V6.528H60.8329V9.408H58.5289V16.512H55.6489V1.584H58.5289ZM42.1369 2.208H49.6009C50.5609 2.208 51.3769 2.496 52.0489 3.072C52.7209 3.632 53.0649 4.44 53.0809 5.49601C53.0329 7.112 52.6169 8.496 51.8329 9.648C51.0649 10.8 49.8489 11.744 48.1849 12.48C46.5209 13.216 44.3449 13.744 41.6569 14.064L41.3209 11.424C43.5289 11.168 45.2729 10.792 46.5529 10.296C47.8329 9.784 48.7449 9.144 49.2889 8.376C49.8489 7.608 50.1529 6.648 50.2009 5.49601C50.1849 5.224 50.1369 5.048 50.0569 4.968C49.9929 4.888 49.8409 4.848 49.6009 4.848H42.1369V2.208ZM79.1773 1.584V10.608H81.4813V13.488H79.1773V22.512H76.2973V1.584H79.1773ZM69.8413 20.016C70.2733 19.424 70.6733 18.688 71.0413 17.808C71.4093 16.912 71.5933 16.08 71.5933 15.312C71.5933 14.336 71.2573 13.624 70.5853 13.176C70.4093 14.824 69.9213 16.168 69.1213 17.208C68.3213 18.232 67.1293 18.8 65.5453 18.912C64.7293 18.96 64.0173 18.816 63.4093 18.48C62.8173 18.144 62.3613 17.68 62.0413 17.088C61.7213 16.496 61.5613 15.848 61.5613 15.144C61.5613 14.392 61.7453 13.664 62.1133 12.96C62.4813 12.256 63.0413 11.656 63.7933 11.16C64.5613 10.648 65.4973 10.312 66.6013 10.152L67.7773 10.032V2.208H70.6573V10.2C71.9853 10.504 72.9373 11.104 73.5133 12C74.0893 12.88 74.3773 13.936 74.3773 15.168C74.3773 16.016 74.2653 16.872 74.0413 17.736C73.8173 18.584 73.5373 19.344 73.2013 20.016H69.8413ZM65.3533 16.272C66.1213 16.224 66.6893 15.904 67.0573 15.312C67.4413 14.72 67.6733 13.84 67.7533 12.672L66.9853 12.744C66.1373 12.872 65.4973 13.176 65.0653 13.656C64.6493 14.12 64.4413 14.624 64.4413 15.168C64.4413 15.504 64.5213 15.776 64.6813 15.984C64.8573 16.192 65.0813 16.288 65.3533 16.272ZM100.066 22.44C98.8498 22.744 97.5618 22.976 96.2018 23.136C94.8578 23.312 93.5538 23.4 92.2898 23.4C90.7698 23.4 89.4418 23.264 88.3058 22.992C87.1858 22.736 86.3698 22.328 85.8578 21.768C85.3938 21.272 85.0658 20.704 84.8738 20.064C84.6818 19.44 84.5858 18.728 84.5858 17.928C84.5858 17.304 84.6418 16.488 84.7538 15.48L87.6338 15.768C87.5378 16.68 87.4898 17.424 87.4898 18C87.4898 18.96 87.6498 19.608 87.9698 19.944C88.2098 20.2 88.6978 20.392 89.4338 20.52C90.1858 20.664 91.0978 20.736 92.1698 20.736C93.4178 20.736 94.7378 20.648 96.1298 20.472C97.5378 20.296 98.8498 20.04 100.066 19.704V22.44ZM84.6818 1.848H91.3778C91.2818 1.432 91.2338 0.816004 91.2338 4.29153e-06H94.1138C94.1138 0.352005 94.1298 0.672005 94.1618 0.960005C94.2098 1.232 94.3058 1.528 94.4498 1.848H100.282C99.6578 3.272 98.9058 4.576 98.0258 5.76C99.2578 6.4 99.8738 7.312 99.8738 8.496C99.8738 9.216 99.6578 9.904 99.2258 10.56H95.6498C96.3858 9.824 96.7538 9.192 96.7538 8.664C96.7538 8.264 96.5538 7.952 96.1538 7.728C94.2658 9.392 91.9618 10.344 89.2418 10.584C89.0498 10.6 88.7778 10.608 88.4258 10.608C87.5618 10.608 86.8018 10.496 86.1458 10.272C85.4898 10.032 84.9858 9.72 84.6338 9.336C84.2818 8.936 84.1058 8.512 84.1058 8.064C84.1058 7.6 84.3138 7.152 84.7298 6.72001C85.1618 6.27201 85.8098 5.896 86.6738 5.592C87.5538 5.272 88.6498 5.056 89.9618 4.94401C91.0018 4.848 91.9378 4.8 92.7698 4.8C93.6978 4.8 94.5058 4.848 95.1938 4.94401L95.7458 4.248H84.6818V1.848ZM102.082 14.328H94.4978V18.552H91.6178V14.328H82.5938V11.688H102.082V14.328ZM89.0018 8.184C90.2978 8.056 91.4578 7.728 92.4818 7.2C91.8418 7.216 91.0818 7.264 90.2018 7.344C89.1298 7.424 88.3138 7.528 87.7538 7.656C87.1938 7.784 86.9138 7.912 86.9138 8.04C86.9138 8.168 87.2578 8.232 87.9458 8.232C88.3778 8.232 88.7298 8.216 89.0018 8.184ZM120.954 1.584V22.512H118.074V1.584H120.954ZM104.562 2.208H112.026C112.986 2.208 113.794 2.488 114.45 3.048C115.106 3.608 115.466 4.408 115.53 5.448C115.578 8.2 115.25 10.536 114.546 12.456C113.858 14.376 112.674 15.96 110.994 17.208C109.314 18.456 107.042 19.36 104.178 19.92L103.65 17.328C105.97 16.88 107.786 16.176 109.098 15.216C110.426 14.256 111.354 13 111.882 11.448C112.426 9.896 112.682 7.928 112.65 5.544C112.634 5.256 112.578 5.072 112.482 4.992C112.402 4.896 112.25 4.848 112.026 4.848H104.562V2.208Z" fill="#FEF5A2"/>
</svg>
